<?xml version="1.0" encoding="UTF-8"?>
<svg xmlns="http://www.w3.org/2000/svg" xmlns:xlink="http://www.w3.org/1999/xlink" width="480pt" height="480pt" viewBox="0 0 480 480" version="1.1">
<g id="surface3">
<path style=" stroke:none;fill-rule:nonzero;fill:rgb(28.627451%,8.235294%,37.254902%);fill-opacity:1;" d="M 240 294.042969 L 94.285156 439.757812 L 40.242188 385.714844 L 185.957031 240 L 40.242188 94.285156 L 94.285156 40.242188 L 240 185.957031 L 385.714844 40.242188 L 439.757812 94.285156 L 294.042969 240 L 439.757812 385.714844 L 385.714844 439.757812 Z M 240 294.042969 "/>
<path style=" stroke:none;fill-rule:nonzero;fill:rgb(28.627451%,8.235294%,37.254902%);fill-opacity:1;" d="M 94.285156 44.484375 L 240 190.199219 L 385.714844 44.484375 L 435.515625 94.285156 L 289.800781 240 L 294.042969 244.242188 L 435.511719 385.714844 L 385.710938 435.515625 L 244.242188 294.042969 L 240 289.800781 L 94.285156 435.515625 L 44.484375 385.714844 L 190.199219 240 L 44.484375 94.285156 L 94.285156 44.484375 M 385.714844 36 L 240 181.714844 L 94.285156 36 L 36 94.285156 L 181.714844 240 L 36 385.714844 L 94.285156 444 L 240 298.285156 L 385.714844 444 L 444 385.714844 L 298.285156 240 L 444 94.285156 Z M 385.714844 36 "/>
</g>
</svg>
